<?xml version="1.0" encoding="UTF-8"?> <svg xmlns="http://www.w3.org/2000/svg" id="Слой_1" data-name="Слой 1" viewBox="0 50 412 168"> <defs> <style>.cls-1,.cls-2{}.cls-1{fill-rule:evenodd;}</style> </defs> <path class="cls-1" d="M110.46,89.61A10.16,10.16,0,1,1,100.3,99.77a10.16,10.16,0,0,1,10.16-10.16Zm53.19,66.19a20.42,20.42,0,0,0,6-10.92,14.26,14.26,0,0,0-.66-8.09h-13.4c.88,3.87.55,9.09-4,10.91-11,4.39-28-1.88-41.19-16-15.39-16.54-19.64-37.59-9.5-47,11.34-10.55,34.19-2.23,42.47,3.76-11.7-9.28-33.77-15.64-46.14-4.13-10.49,9.75-8.07,29.93,4.72,48v21.77a5.39,5.39,0,0,0,5.38,5.37h11.8V149.9c16.39,12.17,34.71,15.1,44.6,5.9Zm-39.12-17.69V93.24h11.8a5.39,5.39,0,0,1,5.38,5.38v14.91h14.1c3.83,0,5.79,1.41,7.3,4.82l3.93,8.83H141.71v17.46a41.25,41.25,0,0,1-17.18-5.83v-.7Zm-22.66-24.58h17.18v21.64a66.53,66.53,0,0,1-14.93-15.61C102.32,116.92,101.83,116.29,101.87,113.53Z"></path> <path class="cls-1" d="M151.54,101.5c-11.77-15.28-34.42-22.41-50.7-13.06,15.75-14.55,42.73-1.81,51.3,8.28a29.14,29.14,0,0,1,4.28,5.43l2.18-5.1h4l-4,9.45h-4v-.06A25.31,25.31,0,0,0,151.54,101.5Z"></path> <path class="cls-1" d="M194.67,127.59a63.81,63.81,0,0,1-63.74,63.73h-1.4a63.81,63.81,0,0,1-63.74-63.73V54.25H194.67v73.34ZM197,38.68H184.32L175.91,41v3H148.34V40.82l-8.45-3.26h-6.84l-1.43-.78a1.34,1.34,0,0,0,.09-.45A1.43,1.43,0,0,0,130.8,35V30h-1.06v5a1.44,1.44,0,0,0-.9,1.33,1.28,1.28,0,0,0,.09.44l-1.45.79h-7.16l-8,3.38V44H84.53V41l-8.41-2.32H63.46L55.06,41v86.59a74.56,74.56,0,0,0,74.47,74.47h1.4a74.56,74.56,0,0,0,74.47-74.47v-82h0V41Z"></path> <path class="cls-2" d="M226.06,60.67H233a19.43,19.43,0,0,1,3.07.17,4.55,4.55,0,0,1,1.81.71A4.4,4.4,0,0,1,239.18,63a3.88,3.88,0,0,1,.54,2,4,4,0,0,1-.66,2.23,4.06,4.06,0,0,1-1.78,1.52,4.59,4.59,0,0,1,2.44,1.57,4.26,4.26,0,0,1,.85,2.62,5.21,5.21,0,0,1-.55,2.29,4.71,4.71,0,0,1-1.5,1.79,5,5,0,0,1-2.35.82c-.58.06-2,.1-4.22.12h-5.89Zm3.49,2.88v4h2.3c1.36,0,2.21,0,2.54,0a2.36,2.36,0,0,0,1.41-.62,2.1,2.1,0,0,0,.07-2.66,2,2,0,0,0-1.32-.61c-.34,0-1.34-.06-3-.06Zm0,6.89v4.63h3.24a15.79,15.79,0,0,0,2.4-.11,2.13,2.13,0,0,0,1.27-.69A2.09,2.09,0,0,0,237,72.8a2.19,2.19,0,0,0-.38-1.32,2.09,2.09,0,0,0-1.09-.79,11.65,11.65,0,0,0-3.1-.25Z"></path> <path class="cls-2" d="M243.6,65.44h3.32v5.21h3.33a12,12,0,0,1,3,.28A3.22,3.22,0,0,1,255,72.14a3.48,3.48,0,0,1,.72,2.2,3.16,3.16,0,0,1-1.26,2.73,6.32,6.32,0,0,1-3.75.92h-7.1Zm3.32,10.44H250a3.16,3.16,0,0,0,1.75-.37,1.41,1.41,0,0,0,.54-1.23,1.26,1.26,0,0,0-.7-1.25,6.57,6.57,0,0,0-2.52-.34h-2.15ZM257.6,65.44h3.32V78H257.6Z"></path> <path class="cls-2" d="M275.52,69.15l-3.27.59a2.39,2.39,0,0,0-.75-1.48,2.28,2.28,0,0,0-1.52-.49,2.47,2.47,0,0,0-2,.85,4.43,4.43,0,0,0-.74,2.87,5.05,5.05,0,0,0,.75,3.15,2.46,2.46,0,0,0,2,.93,2.21,2.21,0,0,0,1.54-.54,3.17,3.17,0,0,0,.85-1.85l3.27.55a5.83,5.83,0,0,1-1.95,3.4,6.08,6.08,0,0,1-3.87,1.14,5.75,5.75,0,0,1-4.39-1.74,6.71,6.71,0,0,1-1.63-4.8,6.71,6.71,0,0,1,1.64-4.84,5.79,5.79,0,0,1,4.44-1.73,6.07,6.07,0,0,1,3.65,1A5.46,5.46,0,0,1,275.52,69.15Z"></path> <path class="cls-2" d="M278.29,65.44h3v9.87h3.85V65.44h3.06v9.87h3.84V65.44h3.06V78H278.29Z"></path> <path class="cls-2" d="M301.37,69.27l-3-.55A4.68,4.68,0,0,1,300.11,66a6.39,6.39,0,0,1,3.68-.87,8,8,0,0,1,3.31.52A3.35,3.35,0,0,1,308.63,67a6.78,6.78,0,0,1,.44,3l0,3.87a13,13,0,0,0,.16,2.44,6.84,6.84,0,0,0,.59,1.69h-3.28c-.09-.22-.19-.55-.32-1-.06-.2-.09-.33-.12-.39a6.07,6.07,0,0,1-1.82,1.24,5.27,5.27,0,0,1-2.07.41,4.28,4.28,0,0,1-3.05-1,3.73,3.73,0,0,1-.61-4.55A3.24,3.24,0,0,1,300,71.39a11.31,11.31,0,0,1,2.64-.78,18.24,18.24,0,0,0,3.22-.81v-.33a1.76,1.76,0,0,0-.47-1.37,2.86,2.86,0,0,0-1.78-.4,2.4,2.4,0,0,0-1.39.34A2.47,2.47,0,0,0,301.37,69.27ZM305.81,72c-.42.14-1.1.31-2,.51a6.26,6.26,0,0,0-1.81.58,1.4,1.4,0,0,0-.65,1.17,1.64,1.64,0,0,0,.52,1.2,1.83,1.83,0,0,0,1.33.51,2.88,2.88,0,0,0,1.71-.59,2,2,0,0,0,.79-1.1,6.36,6.36,0,0,0,.13-1.62Z"></path> <path class="cls-2" d="M324,65.44V78h-3.3V72.78h-.31a3.5,3.5,0,0,0-1.58.27,3.87,3.87,0,0,0-1.11,1.18l-.2.25L315.26,78H311.4l2.37-3.64a4,4,0,0,1,1.85-1.8,3.14,3.14,0,0,1-2.27-1,4,4,0,0,1-.29-4.57,2.85,2.85,0,0,1,1.52-1.18,9.59,9.59,0,0,1,2.83-.31Zm-3.3,2.14h-2.38a3.36,3.36,0,0,0-1.84.37,1.42,1.42,0,0,0-.53,1.24,1.37,1.37,0,0,0,.6,1.24,3.89,3.89,0,0,0,2,.37h2.18Z"></path> <path class="cls-2" d="M225.94,108V90.67h3.5V108Z"></path> <path class="cls-2" d="M236.82,108V93.6h-5.14V90.67h13.77V93.6h-5.13V108Z"></path> <path class="cls-2" d="M255.07,90.67h3.5v14.41h5V90.67h3.48v14.41h5.18V90.67h3.48l0,17.33H255.07Z"></path> <path class="cls-2" d="M279.36,95.44h3.31v5.13a1.78,1.78,0,0,0,1.17-.51,6.64,6.64,0,0,0,.83-1.81,4.78,4.78,0,0,1,1.39-2.37,3.44,3.44,0,0,1,2-.52c.25,0,.69,0,1.31.06v2.19a3.65,3.65,0,0,0-1.68.25,3.59,3.59,0,0,0-.79,1.55,3.11,3.11,0,0,1-1.66,2.14,4.59,4.59,0,0,1,2.66,2.73,2,2,0,0,0,.13.25l1.85,3.46h-3.57l-1.65-3.63a4.44,4.44,0,0,0-.88-1.41,1.69,1.69,0,0,0-1.11-.32V108h-3.31Z"></path> <path class="cls-2" d="M290.85,101.54a6.75,6.75,0,0,1,.82-3.21A5.54,5.54,0,0,1,294,96a6.88,6.88,0,0,1,3.34-.81A6.26,6.26,0,0,1,302,97a6.38,6.38,0,0,1,1.82,4.68A6.45,6.45,0,0,1,302,106.4a6.18,6.18,0,0,1-4.62,1.87,7.27,7.27,0,0,1-3.29-.78,5.31,5.31,0,0,1-2.38-2.28A7.57,7.57,0,0,1,290.85,101.54Zm3.41.17a4.15,4.15,0,0,0,.88,2.86,2.89,2.89,0,0,0,4.37,0,5.09,5.09,0,0,0,0-5.72,2.91,2.91,0,0,0-4.37,0A4.18,4.18,0,0,0,294.26,101.71Z"></path> <path class="cls-2" d="M307.5,95.44h11.12V108h-3.3V98.13h-4.53v5.64a6.57,6.57,0,0,1-.5,3,2.53,2.53,0,0,1-1.1,1.14,5,5,0,0,1-1.93.27,13.65,13.65,0,0,1-2.09-.21v-2.45l.55,0,.8,0c.45,0,.73-.15.83-.44a11.28,11.28,0,0,0,.15-2.47Z"></path> <path class="cls-2" d="M324.78,99.27l-3-.55A4.68,4.68,0,0,1,323.52,96a6.42,6.42,0,0,1,3.69-.87,7.91,7.91,0,0,1,3.3.52A3.25,3.25,0,0,1,332,97a6.75,6.75,0,0,1,.45,3l0,3.87a13,13,0,0,0,.16,2.44,7.34,7.34,0,0,0,.6,1.69h-3.29c-.08-.22-.19-.55-.32-1-.05-.2-.09-.33-.11-.39a6.2,6.2,0,0,1-1.82,1.24,5.35,5.35,0,0,1-2.07.41,4.31,4.31,0,0,1-3.06-1,3.51,3.51,0,0,1-1.11-2.66,3.67,3.67,0,0,1,.5-1.9,3.33,3.33,0,0,1,1.43-1.27,10.84,10.84,0,0,1,2.64-.78,18.42,18.42,0,0,0,3.23-.81v-.33a1.73,1.73,0,0,0-.48-1.37,2.84,2.84,0,0,0-1.78-.4,2.39,2.39,0,0,0-1.38.34A2.43,2.43,0,0,0,324.78,99.27Zm4.45,2.69c-.43.14-1.1.31-2,.51a6,6,0,0,0-1.81.58,1.38,1.38,0,0,0-.65,1.17,1.61,1.61,0,0,0,.52,1.2,1.79,1.79,0,0,0,1.32.51,2.88,2.88,0,0,0,1.71-.59,2.09,2.09,0,0,0,.8-1.1,6.88,6.88,0,0,0,.13-1.62Z"></path> <path class="cls-2" d="M228.27,135v-8.84H225V125h7.94v1.18H229.6V135Z"></path> <path class="cls-2" d="M232.54,131.38a3.74,3.74,0,0,1,1.12-3,3.35,3.35,0,0,1,2.28-.81,3.28,3.28,0,0,1,2.45,1,3.77,3.77,0,0,1,1,2.72,4.81,4.81,0,0,1-.42,2.2,3,3,0,0,1-1.23,1.25,3.61,3.61,0,0,1-1.75.44,3.21,3.21,0,0,1-2.46-1A3.88,3.88,0,0,1,232.54,131.38Zm1.26,0a3.09,3.09,0,0,0,.61,2.09,1.94,1.94,0,0,0,1.53.69,1.91,1.91,0,0,0,1.52-.7,3.12,3.12,0,0,0,.61-2.12,3,3,0,0,0-.61-2,2,2,0,0,0-3.05,0A3.07,3.07,0,0,0,233.8,131.38Z"></path> <path class="cls-2" d="M241.07,127.75H243l1.9,5.81,2.12-5.81h1.77V135h-1.23v-5.85L245.41,135h-1.1l-2-6.13V135h-1.21Z"></path> <path class="cls-2" d="M255.64,132.35l1.21.16a3.13,3.13,0,0,1-1,2,2.94,2.94,0,0,1-2,.71,3.1,3.1,0,0,1-2.39-1,3.92,3.92,0,0,1-.91-2.79,5,5,0,0,1,.39-2.06,2.72,2.72,0,0,1,1.19-1.33,3.53,3.53,0,0,1,1.73-.44,3,3,0,0,1,1.93.6,2.77,2.77,0,0,1,1,1.7l-1.2.19a2,2,0,0,0-.6-1.11,1.59,1.59,0,0,0-1.05-.36,1.91,1.91,0,0,0-1.51.66,3.16,3.16,0,0,0-.59,2.11,3.29,3.29,0,0,0,.56,2.13,1.85,1.85,0,0,0,1.47.66,1.77,1.77,0,0,0,1.21-.44A2.22,2.22,0,0,0,255.64,132.35Z"></path> <path class="cls-2" d="M258.28,127.75h1.23v3.14a1.18,1.18,0,0,0,.82-.23,4.76,4.76,0,0,0,.69-1.31,5.27,5.27,0,0,1,.59-1.14,1.17,1.17,0,0,1,.52-.37,3.54,3.54,0,0,1,.94-.09h.25v1H263a1,1,0,0,0-.62.14,3.56,3.56,0,0,0-.44.9,4,4,0,0,1-.51,1,2.07,2.07,0,0,1-.72.5,3,3,0,0,1,1.56,1.48l1.34,2.25h-1.35l-1.31-2.25a3,3,0,0,0-.71-.89,1.15,1.15,0,0,0-.71-.22V135h-1.23Z"></path> <path class="cls-2" d="M264.82,127.75h1.23v5.54l3.41-5.54h1.33V135h-1.23V129.5L266.14,135h-1.32Z"></path> <path class="cls-2" d="M272.87,127.75h1.23v5.54l3.41-5.54h1.33V135h-1.23V129.5L274.2,135h-1.33Zm4.27-2.75H278a1.92,1.92,0,0,1-.62,1.31,2,2,0,0,1-1.39.46,2.07,2.07,0,0,1-1.4-.45,2,2,0,0,1-.63-1.32h.84a1.05,1.05,0,0,0,1.15.92,1.32,1.32,0,0,0,.83-.22A1.11,1.11,0,0,0,277.14,125Z"></path> <path class="cls-2" d="M225.57,145.75h4.18v1H226.8V153h-1.23Z"></path> <path class="cls-2" d="M230.49,149.38a3.74,3.74,0,0,1,1.12-3,3.37,3.37,0,0,1,2.28-.81,3.27,3.27,0,0,1,2.45,1,3.77,3.77,0,0,1,.95,2.72,4.81,4.81,0,0,1-.42,2.2,3,3,0,0,1-1.22,1.25,3.65,3.65,0,0,1-1.76.44,3.24,3.24,0,0,1-2.46-1A3.88,3.88,0,0,1,230.49,149.38Zm1.26,0a3.14,3.14,0,0,0,.61,2.09,2,2,0,0,0,1.53.69,1.94,1.94,0,0,0,1.53-.7,3.17,3.17,0,0,0,.61-2.12,3,3,0,0,0-.62-2,1.91,1.91,0,0,0-1.52-.7,2,2,0,0,0-1.53.69A3.12,3.12,0,0,0,231.75,149.38Z"></path> <path class="cls-2" d="M243.75,150.35l1.21.16a3.14,3.14,0,0,1-1,2,2.9,2.9,0,0,1-2,.71,3.11,3.11,0,0,1-2.4-1,4,4,0,0,1-.91-2.79,5,5,0,0,1,.39-2.06,2.76,2.76,0,0,1,1.19-1.33,3.56,3.56,0,0,1,1.73-.44,3,3,0,0,1,1.94.6,2.76,2.76,0,0,1,1,1.7l-1.2.19A2,2,0,0,0,243,147a1.59,1.59,0,0,0-1-.36,1.92,1.92,0,0,0-1.51.66,3.17,3.17,0,0,0-.58,2.11,3.25,3.25,0,0,0,.56,2.13,1.82,1.82,0,0,0,1.46.66,1.75,1.75,0,0,0,1.21-.44A2.28,2.28,0,0,0,243.75,150.35Z"></path> <path class="cls-2" d="M246.21,155.8l-.14-1.15a2.86,2.86,0,0,0,.7.11,1.35,1.35,0,0,0,.66-.14,1,1,0,0,0,.4-.38,5.24,5.24,0,0,0,.38-.92c0-.07.06-.17.11-.3l-2.76-7.27h1.33l1.51,4.2c.2.54.37,1.1.53,1.68.14-.56.31-1.11.5-1.65l1.56-4.23h1.23l-2.77,7.38a12.4,12.4,0,0,1-.69,1.65,2.41,2.41,0,0,1-.75.89,1.76,1.76,0,0,1-1,.28A2.43,2.43,0,0,1,246.21,155.8Z"></path> <path class="cls-2" d="M254,145.75h5.06V152h.78v3.07h-1V153h-5.71v2.06h-1V152h.65C253.66,150.82,254.07,148.74,254,145.75Zm1,1A12,12,0,0,1,254,152h3.9v-5.23Z"></path> <path class="cls-2" d="M266.27,152.11a4.46,4.46,0,0,1-1.31.82,3.81,3.81,0,0,1-1.36.24,2.64,2.64,0,0,1-1.84-.58,1.93,1.93,0,0,1-.64-1.5,2,2,0,0,1,.88-1.68,2.83,2.83,0,0,1,.88-.4,9.5,9.5,0,0,1,1.1-.19,11,11,0,0,0,2.19-.42c0-.17,0-.28,0-.32a1.36,1.36,0,0,0-.35-1.06,2.05,2.05,0,0,0-1.4-.42,2.1,2.1,0,0,0-1.28.31,1.87,1.87,0,0,0-.62,1.07l-1.2-.16a3,3,0,0,1,.54-1.25,2.31,2.31,0,0,1,1.09-.73,4.82,4.82,0,0,1,1.64-.26,4.57,4.57,0,0,1,1.52.22,2.05,2.05,0,0,1,.85.55,1.92,1.92,0,0,1,.38.84,7.16,7.16,0,0,1,.06,1.14V150a17.94,17.94,0,0,0,.08,2.17,2.84,2.84,0,0,0,.31.87h-1.28A2.71,2.71,0,0,1,266.27,152.11Zm-.1-2.75a8.78,8.78,0,0,1-2,.47,4,4,0,0,0-1.07.25,1,1,0,0,0-.66,1,1,1,0,0,0,.37.82,1.61,1.61,0,0,0,1.09.33,2.62,2.62,0,0,0,1.27-.31,1.9,1.9,0,0,0,.81-.85,3,3,0,0,0,.2-1.23Z"></path> <path class="cls-2" d="M269.51,155.79v-10h1.13v.94a2.67,2.67,0,0,1,.89-.83,2.52,2.52,0,0,1,1.21-.28,2.85,2.85,0,0,1,1.64.48,3,3,0,0,1,1.08,1.35,5.25,5.25,0,0,1,0,3.92,3.13,3.13,0,0,1-1.16,1.37,3.07,3.07,0,0,1-1.61.47,2.32,2.32,0,0,1-1.1-.26,2.46,2.46,0,0,1-.8-.65v3.53Zm1.12-6.37a3.16,3.16,0,0,0,.57,2.07,1.71,1.71,0,0,0,1.37.67,1.76,1.76,0,0,0,1.4-.69,3.25,3.25,0,0,0,.59-2.15,3.21,3.21,0,0,0-.57-2.08,1.73,1.73,0,0,0-1.37-.69,1.78,1.78,0,0,0-1.39.73A3.31,3.31,0,0,0,270.63,149.42Z"></path> <path class="cls-2" d="M282.3,150.35l1.21.16a3.09,3.09,0,0,1-1,2,2.9,2.9,0,0,1-2,.71,3.11,3.11,0,0,1-2.4-1,4,4,0,0,1-.91-2.79,5,5,0,0,1,.39-2.06,2.76,2.76,0,0,1,1.19-1.33,3.56,3.56,0,0,1,1.73-.44,3,3,0,0,1,1.94.6,2.76,2.76,0,0,1,1,1.7l-1.2.19a2,2,0,0,0-.6-1.11,1.59,1.59,0,0,0-1-.36,1.92,1.92,0,0,0-1.51.66,3.17,3.17,0,0,0-.58,2.11,3.25,3.25,0,0,0,.56,2.13,1.82,1.82,0,0,0,1.46.66,1.73,1.73,0,0,0,1.21-.44A2.28,2.28,0,0,0,282.3,150.35Z"></path> <path class="cls-2" d="M284.31,145.75h5.9v1h-2.34V153h-1.23v-6.24h-2.33Z"></path> <path class="cls-2" d="M291.61,145.75h2.83a5.41,5.41,0,0,1,1.56.17,1.87,1.87,0,0,1,.87.64,1.72,1.72,0,0,1,.37,1.12,1.77,1.77,0,0,1-.22.9,1.73,1.73,0,0,1-.64.65,1.66,1.66,0,0,1,.85.64,1.87,1.87,0,0,1,.34,1.11,2,2,0,0,1-.74,1.53,3.26,3.26,0,0,1-1.95.5h-3.27Zm1.23,3.05h1.31a4.48,4.48,0,0,0,1.08-.08,1.08,1.08,0,0,0,.53-.33.88.88,0,0,0,.23-.6.84.84,0,0,0-.41-.8,3.08,3.08,0,0,0-1.39-.22h-1.35Zm0,3.2h1.62a2.84,2.84,0,0,0,1.43-.25.93.93,0,0,0,.41-.83,1,1,0,0,0-.22-.65,1,1,0,0,0-.59-.38,6.47,6.47,0,0,0-1.16-.07h-1.49Z"></path> <path class="cls-2" d="M304.24,150.67l1.28.16a3.13,3.13,0,0,1-1.12,1.73,3.78,3.78,0,0,1-4.6-.37,3.84,3.84,0,0,1-.94-2.75,4,4,0,0,1,.95-2.84,3.17,3.17,0,0,1,2.44-1,3.06,3.06,0,0,1,2.38,1,3.91,3.91,0,0,1,.93,2.78c0,.08,0,.19,0,.33h-5.41a2.77,2.77,0,0,0,.67,1.83,2,2,0,0,0,1.52.64,1.88,1.88,0,0,0,1.16-.36A2.31,2.31,0,0,0,304.24,150.67Zm-4-2h4.06a2.44,2.44,0,0,0-.47-1.37,1.86,1.86,0,0,0-1.52-.71,2,2,0,0,0-1.43.56A2.33,2.33,0,0,0,300.2,148.68Z"></path> <path class="cls-2" d="M307.31,145.75h1.23v3H312v-3h1.23V153H312v-3.22h-3.41V153h-1.23Z"></path> <path class="cls-2" d="M315.26,145.75h1.23v3h3.41v-3h1.23V153H319.9v-3.22h-3.41V153h-1.23Z"></path> <path class="cls-2" d="M323.22,145.75h1.23v2.83H326a3.94,3.94,0,0,1,2.35.6,1.88,1.88,0,0,1,.82,1.63,2.08,2.08,0,0,1-.68,1.55,3.16,3.16,0,0,1-2.2.65h-3.08Zm1.23,6.25h1.29a3.56,3.56,0,0,0,1.67-.29,1,1,0,0,0,.5-.9,1.16,1.16,0,0,0-.37-.84,2.47,2.47,0,0,0-1.63-.37h-1.46Zm5.66-6.25h1.23V153h-1.23Z"></path> <path class="cls-2" d="M333.45,145.75h1.23v5.54l3.41-5.54h1.33V153h-1.23V147.5L334.78,153h-1.33Zm4.27-2.75h.84a1.92,1.92,0,0,1-.62,1.31,2,2,0,0,1-1.39.46,2.07,2.07,0,0,1-1.4-.45,2,2,0,0,1-.63-1.32h.85a1,1,0,0,0,1.14.92,1.29,1.29,0,0,0,.83-.22A1.11,1.11,0,0,0,337.72,143Z"></path> <path class="cls-2" d="M225.51,173.8l-.14-1.15a2.93,2.93,0,0,0,.71.11,1.33,1.33,0,0,0,.65-.14,1.15,1.15,0,0,0,.41-.38,6.65,6.65,0,0,0,.37-.92c0-.07.06-.17.11-.3l-2.75-7.27h1.32l1.51,4.2a17.33,17.33,0,0,1,.53,1.68,15.74,15.74,0,0,1,.51-1.65l1.55-4.23h1.23l-2.76,7.38a16,16,0,0,1-.69,1.65,2.43,2.43,0,0,1-.76.89,1.76,1.76,0,0,1-1,.28A2.48,2.48,0,0,1,225.51,173.8Z"></path> <path class="cls-2" d="M232.86,163.75h1.23v3h3.41v-3h1.23V171H237.5v-3.22h-3.41V171h-1.23Z"></path> <path class="cls-2" d="M240.81,163.75H242v5.54l3.41-5.54h1.33V171h-1.23V165.5L242.14,171h-1.33Z"></path> <path class="cls-2" d="M248.87,163.75h2.83a5.41,5.41,0,0,1,1.56.17,1.87,1.87,0,0,1,.87.64,1.72,1.72,0,0,1,.37,1.12,1.77,1.77,0,0,1-.22.9,1.81,1.81,0,0,1-.64.65,1.66,1.66,0,0,1,.85.64,1.87,1.87,0,0,1,.34,1.11,2,2,0,0,1-.74,1.53,3.26,3.26,0,0,1-2,.5h-3.27Zm1.23,3.05h1.31a4.48,4.48,0,0,0,1.08-.08,1.08,1.08,0,0,0,.53-.33.88.88,0,0,0,.23-.6.84.84,0,0,0-.41-.8,3.08,3.08,0,0,0-1.39-.22H250.1Zm0,3.2h1.62a2.84,2.84,0,0,0,1.43-.25.93.93,0,0,0,.41-.83,1,1,0,0,0-.22-.65,1,1,0,0,0-.59-.38,6.47,6.47,0,0,0-1.16-.07H250.1Z"></path> <path class="cls-2" d="M261.5,168.67l1.28.16a3.13,3.13,0,0,1-1.12,1.73,3.78,3.78,0,0,1-4.6-.37,3.84,3.84,0,0,1-.94-2.75,4,4,0,0,1,.95-2.84,3.18,3.18,0,0,1,2.45-1,3.05,3.05,0,0,1,2.37,1,3.91,3.91,0,0,1,.93,2.78c0,.08,0,.19,0,.33H257.4a2.77,2.77,0,0,0,.67,1.83,2,2,0,0,0,1.52.64,1.88,1.88,0,0,0,1.16-.36A2.25,2.25,0,0,0,261.5,168.67Zm-4-2h4.06a2.44,2.44,0,0,0-.47-1.37,1.86,1.86,0,0,0-1.52-.71,2,2,0,0,0-1.43.56A2.33,2.33,0,0,0,257.46,166.68Z"></path> <path class="cls-2" d="M264.54,173.79v-10h1.12v.94a2.8,2.8,0,0,1,.9-.83,2.52,2.52,0,0,1,1.21-.28,2.85,2.85,0,0,1,1.64.48,3,3,0,0,1,1.07,1.35,5.18,5.18,0,0,1,0,3.92,3.09,3.09,0,0,1-1.17,1.37,3,3,0,0,1-1.6.47,2.32,2.32,0,0,1-1.1-.26,2.5,2.5,0,0,1-.81-.65v3.53Zm1.12-6.37a3.22,3.22,0,0,0,.56,2.07,1.74,1.74,0,0,0,1.38.67,1.77,1.77,0,0,0,1.4-.69,3.3,3.3,0,0,0,.59-2.15,3.21,3.21,0,0,0-.57-2.08,1.73,1.73,0,0,0-1.37-.69,1.78,1.78,0,0,0-1.39.73A3.31,3.31,0,0,0,265.66,167.42Z"></path> <path class="cls-2" d="M277.33,168.35l1.21.16a3.14,3.14,0,0,1-1,2,2.91,2.91,0,0,1-2,.71,3.1,3.1,0,0,1-2.39-1,3.92,3.92,0,0,1-.91-2.79,5,5,0,0,1,.39-2.06,2.7,2.7,0,0,1,1.19-1.32,3.46,3.46,0,0,1,1.73-.45,3,3,0,0,1,1.94.6,2.76,2.76,0,0,1,1,1.7l-1.2.19a2,2,0,0,0-.6-1.11,1.59,1.59,0,0,0-1.05-.36,1.92,1.92,0,0,0-1.51.66,3.17,3.17,0,0,0-.58,2.11,3.25,3.25,0,0,0,.56,2.13,1.82,1.82,0,0,0,1.46.66,1.75,1.75,0,0,0,1.21-.44A2.28,2.28,0,0,0,277.33,168.35Z"></path> <path class="cls-2" d="M280,163.75h1.23v5.54l3.42-5.54h1.32V171H284.7V165.5L281.29,171H280Z"></path> <path class="cls-2" d="M287.34,163.75h5.9v1H290.9V171h-1.22v-6.24h-2.34Z"></path> <path class="cls-2" d="M299.5,168.67l1.27.16a3.12,3.12,0,0,1-1.11,1.73,3.8,3.8,0,0,1-4.61-.37,3.83,3.83,0,0,1-.93-2.75,4,4,0,0,1,.94-2.84,3.19,3.19,0,0,1,2.45-1,3.09,3.09,0,0,1,2.38,1,4,4,0,0,1,.92,2.78c0,.08,0,.19,0,.33h-5.41a2.77,2.77,0,0,0,.68,1.83,2,2,0,0,0,1.51.64,1.86,1.86,0,0,0,1.16-.36A2.32,2.32,0,0,0,299.5,168.67Zm-4-2h4.05a2.44,2.44,0,0,0-.46-1.37,1.87,1.87,0,0,0-1.53-.71,2,2,0,0,0-1.42.56A2.24,2.24,0,0,0,295.46,166.68Z"></path> <path class="cls-2" d="M301.74,163.75h5.9v1H305.3V171h-1.22v-6.24h-2.34Z"></path> </svg> 